<?xml version="1.0" encoding="utf-8"?>
<!-- Generator: Adobe Illustrator 28.0.0, SVG Export Plug-In . SVG Version: 6.00 Build 0)  -->
<svg version="1.1" id="Layer_1" xmlns="http://www.w3.org/2000/svg" xmlns:xlink="http://www.w3.org/1999/xlink" x="0px" y="0px"
	 viewBox="0 0 479.01 155.65" style="enable-background:new 0 0 479.01 155.65;" xml:space="preserve">
<style type="text/css">
	.st0{fill:#2C2A71;}
</style>
<g>
	<g>
		<path class="st0" d="M193.36,81.44h-11.81v-7.36h33.12v7.36h-11.92v33.29h-9.4V81.44z"/>
		<path class="st0" d="M221.43,115c-2.82,0-4.96-0.74-6.43-2.22c-1.46-1.48-2.2-3.56-2.2-6.24c0-3,0.92-5.25,2.75-6.76
			c1.83-1.5,4.69-2.4,8.57-2.69l6.87-0.49v-0.33c0-0.99-0.08-1.8-0.25-2.44c-0.16-0.64-0.47-1.16-0.9-1.57
			c-0.44-0.4-1.06-0.69-1.87-0.85c-0.81-0.17-1.87-0.25-3.19-0.25c-1.36,0-2.88,0.09-4.59,0.27c-1.7,0.18-3.34,0.42-4.92,0.71
			l-0.6-6.37c2.09-0.4,4.09-0.69,6.02-0.85c1.92-0.17,3.76-0.25,5.52-0.25c4.76,0,8.28,0.82,10.55,2.44
			c2.27,1.63,3.41,4.17,3.41,7.61v20h-7.53l-0.82-3.63h-0.49c-1.46,1.32-3.04,2.3-4.72,2.94C224.91,114.68,223.19,115,221.43,115z
			 M225.33,108.68c0.95,0,1.95-0.19,3-0.58c1.04-0.38,1.93-0.87,2.66-1.46v-5.27l-4.07,0.33c-1.83,0.15-3.1,0.5-3.82,1.07
			c-0.71,0.57-1.07,1.47-1.07,2.72C222.04,107.62,223.14,108.68,225.33,108.68z"/>
		<path class="st0" d="M247.31,70.34h9.17v44.39h-9.17V70.34z"/>
		<path class="st0" d="M278.29,115.28c-5.16,0-9.1-1.31-11.81-3.93c-2.71-2.62-4.06-6.44-4.06-11.45c0-5.02,1.36-8.83,4.06-11.45
			c2.71-2.62,6.65-3.93,11.81-3.93c5.16,0,9.08,1.31,11.76,3.93c2.67,2.62,4.01,6.44,4.01,11.45c0,5.02-1.34,8.84-4.01,11.45
			C287.37,113.97,283.45,115.28,278.29,115.28z M278.29,108.3c1.21,0,2.23-0.14,3.08-0.41c0.84-0.27,1.52-0.74,2.03-1.4
			c0.51-0.66,0.89-1.53,1.13-2.61s0.36-2.41,0.36-3.98c0-1.57-0.12-2.89-0.36-3.95c-0.24-1.06-0.61-1.92-1.13-2.58
			c-0.51-0.66-1.19-1.13-2.03-1.4c-0.84-0.27-1.87-0.41-3.08-0.41s-2.23,0.14-3.08,0.41c-0.84,0.27-1.53,0.74-2.06,1.4
			c-0.53,0.66-0.92,1.52-1.15,2.58c-0.24,1.06-0.36,2.38-0.36,3.95c0,1.58,0.12,2.9,0.36,3.98c0.24,1.08,0.62,1.95,1.15,2.61
			c0.53,0.66,1.22,1.13,2.06,1.4S277.08,108.3,278.29,108.3z"/>
		<path class="st0" d="M328.28,115.28c-2.6,0-4.95-0.27-7.06-0.82c-2.11-0.55-3.89-1.35-5.36-2.39c-1.46-1.04-2.59-2.29-3.38-3.74
			c-0.79-1.45-1.18-3.08-1.18-4.92c0-2.56,0.69-4.76,2.06-6.59c1.37-1.83,3.32-3.15,5.85-3.96c-1.46-1.46-2.51-2.9-3.13-4.31
			c-0.62-1.41-0.93-2.88-0.93-4.42c0-3.37,1.33-6,3.98-7.88c2.65-1.89,6.34-2.83,11.07-2.83c3.52,0,7.27,0.57,11.26,1.7l0.11,0.27
			l-0.99,6.1h-0.49c-1.54-0.51-3.1-0.92-4.67-1.21c-1.57-0.29-3-0.44-4.28-0.44c-4.39,0-6.59,1.68-6.59,5.05
			c0,1.72,0.87,3.42,2.61,5.11c1.74,1.68,4.5,3.55,8.27,5.6l4.01,2.2c0-0.29,0.01-0.59,0.03-0.91s0.03-0.63,0.03-0.96v-4.67
			l8.29-0.27v4.89c0,1.1-0.06,2.15-0.19,3.16c-0.13,1.01-0.3,1.99-0.52,2.94l5.05,2.69v0.6l-3.4,6.43h-0.5l-4.56-2.69
			c-1.65,2.05-3.76,3.61-6.34,4.67C334.73,114.74,331.72,115.28,328.28,115.28z M331.74,101.87c-1.39-0.84-2.69-1.64-3.9-2.39
			c-1.21-0.75-2.31-1.49-3.3-2.22c-2.53,1.1-3.79,2.99-3.79,5.66c0,1.83,0.74,3.3,2.22,4.4c1.48,1.1,3.45,1.65,5.91,1.65
			c3.88,0,6.68-1.24,8.4-3.74L331.74,101.87z"/>
		<path class="st0" d="M376.78,81.44h-11.81v-7.36h33.12v7.36h-11.92v33.29h-9.4V81.44z"/>
		<path class="st0" d="M407.65,80.78c-1.79,0-3.08-0.38-3.84-1.15c-0.77-0.77-1.15-2.01-1.15-3.74c0-1.72,0.38-2.97,1.15-3.74
			c0.77-0.77,2.05-1.15,3.84-1.15c1.83,0,3.14,0.4,3.93,1.21c0.79,0.81,1.18,2.03,1.18,3.68s-0.38,2.88-1.15,3.68
			C410.84,80.38,409.52,80.78,407.65,80.78z M403.09,85.06h9.17v29.66h-9.17V85.06z"/>
		<path class="st0" d="M419.63,70.34h9.17v44.39h-9.17V70.34z"/>
		<path class="st0" d="M440.78,80.78c-1.79,0-3.08-0.38-3.84-1.15c-0.77-0.77-1.15-2.01-1.15-3.74c0-1.72,0.38-2.97,1.15-3.74
			c0.77-0.77,2.05-1.15,3.84-1.15c1.83,0,3.14,0.4,3.93,1.21c0.79,0.81,1.18,2.03,1.18,3.68s-0.38,2.88-1.15,3.68
			C443.96,80.38,442.64,80.78,440.78,80.78z M436.22,85.06h9.17v29.66h-9.17V85.06z"/>
	</g>
	<polygon class="st0" points="94.4,33.12 33.12,81.44 54.7,81.44 54.7,114.73 81.51,114.73 81.51,107.48 64.1,107.48 64.1,74.08 
		60.6,74.08 54.7,74.08 54.28,74.08 94.4,42.44 134.53,74.08 113.81,74.08 111.18,74.08 79.33,74.08 78.05,74.08 78.05,81.44 
		79.33,81.44 89.86,81.44 89.86,114.73 99.26,114.73 99.26,81.44 111.18,81.44 113.81,81.44 125.62,81.44 125.62,114.73 
		135.02,114.73 135.02,81.44 146.94,81.44 155.69,81.44 	"/>
</g>
</svg>
