<svg xmlns="http://www.w3.org/2000/svg" viewBox="0 0 523.28 320.08"><defs><style>.cls-1{fill:#231f20;}.cls-2,.cls-3{fill:none;stroke-width:18.85px;}.cls-2{stroke:#808285;}.cls-3{stroke:#d2232a;}.cls-4{fill:#d2232a;}.cls-5{fill:#808285;}</style></defs><title>Asset 1</title><g id="Layer_2" data-name="Layer 2"><g id="Layer_1-2" data-name="Layer 1"><path class="cls-1" d="M522.59,304.57v-5.47h-1.16a6,6,0,0,1-4.44-1.82,6.88,6.88,0,0,1-1.67-4.73V275h7.28v-5.83H515.3V258.54H509v34a12.17,12.17,0,0,0,3.46,8.48,10.29,10.29,0,0,0,7.68,3.75l2.47-.21m-22.06-35.4h-6.34v19.73a10.07,10.07,0,0,1-2.83,7.43,10.92,10.92,0,0,1-14.69,0,10.14,10.14,0,0,1-2.79-7.43V269.18h-6.33v19.66q0,7.36,4.55,11.72t12,4.37q7.35,0,11.91-4.44a15.55,15.55,0,0,0,4.55-11.65Zm-47.77,35.17h6.33v-52.5h-6.33Zm-6.48-24.9a34.25,34.25,0,0,0-2.95-5,19.31,19.31,0,0,0-4.62-3.76q-3.42-2.21-9.18-2.21a17.14,17.14,0,0,0-12.92,5.27A18.28,18.28,0,0,0,411.54,287a17.35,17.35,0,0,0,5.1,12.94,17.71,17.71,0,0,0,13,5q7.06,0,10.41-2.88a26.74,26.74,0,0,0,5.32-6l-5.08-3.2q-4.74,6.34-10.64,6.34a12,12,0,0,1-8.3-20.8,12.5,12.5,0,0,1,9-3.74,10.2,10.2,0,0,1,8,3.81L423.4,290.36l3.72,4.3Zm-71-10.27,5.32,26.07a12,12,0,0,0,4,7A11,11,0,0,0,399,302.2a11.82,11.82,0,0,0,4-7l5.17-26.07h-6.31l-5.17,25.34a6.23,6.23,0,0,1-1.76,3.42,4.52,4.52,0,0,1-3.22,1.24,4.6,4.6,0,0,1-3.14-1.24,7.43,7.43,0,0,1-1.76-3.42l-5.09-25.34Zm-11.07,35.17h6.34v-52.5h-6.34Zm-24.61.51q.58-.07,1.68-.29l4.44-1.38v-6.41a21.18,21.18,0,0,1-3.9,1.82,13.05,13.05,0,0,1-3.46.36,12.85,12.85,0,0,1-9.32-3.61,11.76,11.76,0,0,1-3.71-8.77,12.16,12.16,0,0,1,3.57-8.78,11.38,11.38,0,0,1,8.45-3.68,10.92,10.92,0,0,1,8.7,4,15.1,15.1,0,0,1,3.39,10.16v16.09h6.34V288a25.08,25.08,0,0,0-1.24-8.23,18.5,18.5,0,0,0-3.71-6.33A17.07,17.07,0,0,0,337.63,268a18.53,18.53,0,0,0-18.79,18.71,17.42,17.42,0,0,0,5.35,13,18.42,18.42,0,0,0,13.44,5.24A18.65,18.65,0,0,0,339.59,304.86Zm-62.92,15.22H283V286.14a11.36,11.36,0,0,1,3.57-8.48A11.73,11.73,0,0,1,295,274.2a11.27,11.27,0,0,1,8.52,3.6,12.36,12.36,0,0,1,3.42,8.85,10.76,10.76,0,0,1-3.61,8.63q-3.6,3.1-10.09,3.1l-3.2-.29a36,36,0,0,1-4-1.17v6.34a25.11,25.11,0,0,0,8.16,1.67,19.12,19.12,0,0,0,13.8-5.21,18.35,18.35,0,0,0-12.78-31.57,18.43,18.43,0,0,0-13.07,5.17,16.25,16.25,0,0,0-5.5,12.23Zm-33.35-42.31a11,11,0,0,1,16.46,0,12.33,12.33,0,0,1,3.5,8.74,12,12,0,0,1-3.5,8.7,11.17,11.17,0,0,1-8.3,3.6,11,11,0,0,1-8.23-3.68,12,12,0,0,1-3.49-8.56A12.29,12.29,0,0,1,243.32,277.77Zm10.78-19.23a4.3,4.3,0,0,0,3.06,7.36,4.21,4.21,0,0,0,3.09-1.27,4.13,4.13,0,0,0,1.27-3,3.76,3.76,0,0,0-1.31-3.06,4.4,4.4,0,0,0-6.12,0Zm-11.21,0a4,4,0,0,0-1.31,3.1,4.1,4.1,0,0,0,1.27,3.06,4.27,4.27,0,0,0,3.1,1.24,4.35,4.35,0,0,0,4.3-4.3,3.76,3.76,0,0,0-1.31-3.06,4.07,4.07,0,0,0-3-1.24A4.39,4.39,0,0,0,242.89,258.51Zm-4.33,15a17.73,17.73,0,0,0-5.28,12.93,18,18,0,0,0,5.39,13,17.25,17.25,0,0,0,12.74,5.5,17.48,17.48,0,0,0,12.93-5.53,18.1,18.1,0,0,0,5.42-13.11,17.32,17.32,0,0,0-5.39-12.85,17.86,17.86,0,0,0-13-5.28A17.37,17.37,0,0,0,238.55,273.51Zm-8.77,31.06v-5.47h-1.17a6,6,0,0,1-4.44-1.82,6.88,6.88,0,0,1-1.68-4.73V275h7.28v-5.83H222.5V258.54h-6.33v34a12.17,12.17,0,0,0,3.46,8.48,10.29,10.29,0,0,0,7.68,3.75Zm-41.44-9.69a18.41,18.41,0,0,0,1,4.26,13,13,0,0,0,2.88,3.57,8.27,8.27,0,0,0,6,2.22,9.58,9.58,0,0,0,7.14-3.09,10.33,10.33,0,0,0,3-7.45,9.65,9.65,0,0,0-4.53-8.58l-6.55-4.38a4,4,0,0,1-2.1-3.33,3.53,3.53,0,0,1,1.18-2.64,3.71,3.71,0,0,1,2.61-1.12q2.71,0,3.5,3l6.26.14a21.74,21.74,0,0,0-.73-3,14.83,14.83,0,0,0-2.37-3.5q-2-2.46-6.59-2.46a9.76,9.76,0,0,0-7,3,9.46,9.46,0,0,0,1.31,14.94l7.21,4.73a3.9,3.9,0,0,1,1.89,3.46,3.75,3.75,0,0,1-1.24,2.92,4.3,4.3,0,0,1-3,1.12,3.42,3.42,0,0,1-2.66-1,3.77,3.77,0,0,1-.91-2.64Zm-14.05-42.31a4.73,4.73,0,0,0,3.35,8.08,4.48,4.48,0,0,0,3.28-1.38,4.75,4.75,0,0,0,0-6.7,4.48,4.48,0,0,0-3.28-1.38A4.56,4.56,0,0,0,174.29,252.57Zm.15,51.78h6.34V269.18h-6.34Zm-6.55-24.9a34.43,34.43,0,0,0-2.95-5,19.33,19.33,0,0,0-4.62-3.76q-3.42-2.21-9.18-2.21a17.14,17.14,0,0,0-12.92,5.27A18.28,18.28,0,0,0,133.15,287a17.35,17.35,0,0,0,5.1,12.94,17.71,17.71,0,0,0,13,5q7.06,0,10.41-2.88a26.75,26.75,0,0,0,5.32-6l-5.08-3.2q-4.74,6.34-10.64,6.34a12,12,0,0,1-8.31-20.8,12.5,12.5,0,0,1,9-3.74,10.2,10.2,0,0,1,8,3.81L145,290.36l3.72,4.3Zm-38.23,25.13v-5.47h-1.17a6,6,0,0,1-4.44-1.82,6.88,6.88,0,0,1-1.67-4.73V275h7.28v-5.83h-7.28V258.54H116v34a12.18,12.18,0,0,0,3.46,8.48,10.29,10.29,0,0,0,7.68,3.75Zm-55.05-.22h6.33V284.61a10.38,10.38,0,0,1,17.52-7.43,10.14,10.14,0,0,1,2.79,7.43v19.73h6.34V284.69q0-7.28-4.55-11.65t-11.91-4.37q-7.5,0-12,4.4T74.6,284.69ZM59.53,252.57a4.73,4.73,0,0,0,3.35,8.08,4.48,4.48,0,0,0,3.28-1.38,4.75,4.75,0,0,0,0-6.7,4.48,4.48,0,0,0-3.28-1.38A4.56,4.56,0,0,0,59.53,252.57Zm.14,51.78H66V269.18H59.67ZM44.53,252.57a4.73,4.73,0,0,0,3.35,8.08,4.48,4.48,0,0,0,3.28-1.38,4.75,4.75,0,0,0,0-6.7,4.48,4.48,0,0,0-3.28-1.38A4.56,4.56,0,0,0,44.53,252.57Zm.14,51.78H51V269.18H44.67Zm-40.85,0h6.63V280.9h1.9a18.63,18.63,0,0,1,13,5.1,15.67,15.67,0,0,1,5.55,11.87v6.48h6.77v-6.12q0-8.16-3.79-12.09a44.72,44.72,0,0,0-5.68-5.24,14.3,14.3,0,0,0-3.42-2.11L22,277.55q15.73-5,15.73-20.61v-5.1H30.91v6.26a14.65,14.65,0,0,1-5.39,12q-5.39,4.41-14.27,4.4h-.8V251.84H3.82Z"/><path class="cls-1" d="M477.55,228.56h8.78V201.2a14.39,14.39,0,0,1,24.29-10.3,14.06,14.06,0,0,1,3.87,10.3v27.36h8.78V201.3q0-10.09-6.31-16.15t-16.5-6.06q-10.4,0-16.66,6.11t-6.26,16.1v27.26m-30.9.71q.81-.1,2.32-.4l6.16-1.92v-8.88a29.41,29.41,0,0,1-5.4,2.52,18.11,18.11,0,0,1-4.79.51,17.81,17.81,0,0,1-12.92-5,16.31,16.31,0,0,1-5.15-12.16,16.86,16.86,0,0,1,4.95-12.16,15.78,15.78,0,0,1,11.71-5.1,15.14,15.14,0,0,1,12.06,5.5q4.69,5.5,4.69,14.08v22.31h8.78V205.94a34.76,34.76,0,0,0-1.72-11.41,25.69,25.69,0,0,0-5.15-8.78q-7-7.57-18.27-7.57a25.68,25.68,0,0,0-26,25.94,24.15,24.15,0,0,0,7.42,18q7.42,7.27,18.63,7.27A25.5,25.5,0,0,0,446.65,229.26Zm-57.55,0q.81-.1,2.32-.4l6.16-1.92v-8.88a29.41,29.41,0,0,1-5.4,2.52,18.11,18.11,0,0,1-4.8.51,17.81,17.81,0,0,1-12.92-5,16.31,16.31,0,0,1-5.15-12.16,16.86,16.86,0,0,1,4.95-12.16,15.77,15.77,0,0,1,11.71-5.1,15.14,15.14,0,0,1,12.06,5.5q4.69,5.5,4.69,14.08v22.31h8.78V205.94a34.79,34.79,0,0,0-1.72-11.41,25.69,25.69,0,0,0-5.15-8.78q-7-7.57-18.27-7.57a25.68,25.68,0,0,0-26,25.94,24.15,24.15,0,0,0,7.42,18q7.42,7.27,18.62,7.27A25.51,25.51,0,0,0,389.1,229.26Zm-99.34-.71h8.78V197.36a10.65,10.65,0,0,1,2.52-7.37,9.38,9.38,0,0,1,7.07-2.83,8.83,8.83,0,0,1,6.81,2.67,10.37,10.37,0,0,1,2.47,7.32v31.4h8.78v-31.4a10.19,10.19,0,0,1,2.57-7.22,8.73,8.73,0,0,1,6.71-2.78,9.1,9.1,0,0,1,7,2.78,10.48,10.48,0,0,1,2.57,7.42v31.19h8.78V197.26a18.25,18.25,0,0,0-18.24-18.37q-7.66,0-13.91,6.26l-1.11-1.31a19.51,19.51,0,0,0-3.23-2.83q-2.72-2.12-9-2.12a18.1,18.1,0,0,0-13.15,5.4,17.54,17.54,0,0,0-5.49,13Zm-54.21,0h8.78V201.2a14.39,14.39,0,0,1,24.29-10.3,14.06,14.06,0,0,1,3.87,10.3v27.36h8.78V201.3q0-10.09-6.31-16.15t-16.5-6.06q-10.4,0-16.66,6.11t-6.26,16.1Zm-30.9.71q.81-.1,2.32-.4l6.16-1.92v-8.88a29.41,29.41,0,0,1-5.4,2.52,18.11,18.11,0,0,1-4.79.51,17.81,17.81,0,0,1-12.92-5,16.31,16.31,0,0,1-5.15-12.16,16.86,16.86,0,0,1,4.95-12.16,15.78,15.78,0,0,1,11.71-5.1,15.14,15.14,0,0,1,12.06,5.5q4.69,5.5,4.69,14.08v22.31h8.78V205.94a34.76,34.76,0,0,0-1.72-11.41,25.69,25.69,0,0,0-5.15-8.78q-7-7.57-18.27-7.57a25.68,25.68,0,0,0-26,25.94,24.15,24.15,0,0,0,7.42,18q7.42,7.27,18.63,7.27A25.5,25.5,0,0,0,204.65,229.26Zm-44.22-72.48a6.58,6.58,0,0,0,0,9.29A6.21,6.21,0,0,0,165,168a6.56,6.56,0,1,0,0-13.12A6.21,6.21,0,0,0,160.43,156.78Zm-14.64,94.39a37.39,37.39,0,0,0,11.61-1.46,21.81,21.81,0,0,0,8.28-5.35q3.94-3.89,3.94-12.37V179.8h-8.78v52.59a9.77,9.77,0,0,1-3.33,7.87q-3.33,2.83-9.79,2.83h-1.92Zm-38.87-22.61h8.78V200.29a11.46,11.46,0,0,1,4.34-9,15.41,15.41,0,0,1,10.4-3.74,12.66,12.66,0,0,1,9.34,3.68,12.05,12.05,0,0,1,3.68,8.83v28.47h8.78V199.48a20.06,20.06,0,0,0-6-14.84,20.69,20.69,0,0,0-15.19-6,20.37,20.37,0,0,0-8.28,1.41l-4.14,2.12-2.93,2.22V155.77h-8.78Zm-43-36.85a15.21,15.21,0,0,1,22.81,0,17.1,17.1,0,0,1,4.85,12.11,16.7,16.7,0,0,1-4.85,12.06,15.49,15.49,0,0,1-11.51,5,15.24,15.24,0,0,1-11.41-5.1A16.68,16.68,0,0,1,59,203.92,17,17,0,0,1,63.91,191.71Zm-6.61-5.9A24.58,24.58,0,0,0,50,203.72a24.88,24.88,0,0,0,7.47,18,23.91,23.91,0,0,0,17.67,7.62A24.23,24.23,0,0,0,93,221.69a25.08,25.08,0,0,0,7.52-18.17,24,24,0,0,0-7.47-17.82,24.76,24.76,0,0,0-18-7.32A24.08,24.08,0,0,0,57.29,185.8ZM27.56,164.45a9.65,9.65,0,0,1,7.93,3.4q2.77,3.4,2.78,9.17,0,5.47-2.67,8.46t-7.72,3H9.49v-24ZM0,155.77v72.78H9.49v-31.4H27.66q9.09,0,14.79-5.85t5.7-15.14q0-9.29-5.55-14.84T28,155.77Z"/><polyline class="cls-2" points="309.42 83.4 367.88 14.56 457.77 120.41"/><polyline class="cls-2" points="213.86 83.4 155.4 14.56 65.51 120.41"/><polyline class="cls-3" points="172.37 120.43 261.68 14.61 350.99 120.43"/><path class="cls-4" d="M151.94,72.06a6.46,6.46,0,0,1,5.3,2.27,9.41,9.41,0,0,1,1.86,6.14,8.21,8.21,0,0,1-1.79,5.66,6.57,6.57,0,0,1-5.17,2H139.85V72.06h12.09M133.5,66.26V115h6.35V94H152A13.2,13.2,0,0,0,161.9,90a13.91,13.91,0,0,0,3.82-10.13q0-6.21-3.72-9.93a13.25,13.25,0,0,0-9.79-3.72Z"/><path class="cls-4" d="M379.61,72.06a6.46,6.46,0,0,1,5.3,2.27,9.41,9.41,0,0,1,1.86,6.14A8.22,8.22,0,0,1,385,86.14a6.58,6.58,0,0,1-5.17,2H367.52V72.06h12.09m-18.44-5.81V115h6.35V94h12.16a13.2,13.2,0,0,0,9.9-3.92,13.91,13.91,0,0,0,3.82-10.13q0-6.21-3.71-9.93a13.25,13.25,0,0,0-9.8-3.72Z"/><path class="cls-5" d="M246.35,115h6.15V93.21h1.76a17.28,17.28,0,0,1,12.07,4.73,14.53,14.53,0,0,1,5.15,11v6h6.28v-5.67q0-7.56-3.51-11.21A41.53,41.53,0,0,0,269,93.21a13.25,13.25,0,0,0-3.17-2l-2.64-1.15Q277.76,85.44,277.76,71V66.26h-6.28v5.81a13.59,13.59,0,0,1-5,11.11q-5,4.09-13.24,4.09h-.74v-21h-6.15V115"/></g></g></svg>